<?xml version="1.0" encoding="UTF-8" standalone="no"?>
<!-- Created with Inkscape (http://www.inkscape.org/) -->

<svg
   xmlns:dc="http://purl.org/dc/elements/1.1/"
   xmlns:cc="http://creativecommons.org/ns#"
   xmlns:rdf="http://www.w3.org/1999/02/22-rdf-syntax-ns#"
   xmlns:svg="http://www.w3.org/2000/svg"
   xmlns="http://www.w3.org/2000/svg"
   xmlns:sodipodi="http://sodipodi.sourceforge.net/DTD/sodipodi-0.dtd"
   xmlns:inkscape="http://www.inkscape.org/namespaces/inkscape"
   width="34.335186mm"
   height="22.385962mm"
   viewBox="0 0 121.66011 79.320334"
   id="svg2"
   version="1.1"
   inkscape:version="0.91 r13725"
   sodipodi:docname="nelson-siegel-svensson.svg">
  <defs
     id="defs4" />
  <sodipodi:namedview
     id="base"
     pagecolor="#ffffff"
     bordercolor="#666666"
     borderopacity="1.0"
     inkscape:pageopacity="0.0"
     inkscape:pageshadow="2"
     inkscape:zoom="7.9195959"
     inkscape:cx="55.738842"
     inkscape:cy="43.478547"
     inkscape:document-units="px"
     inkscape:current-layer="layer1"
     showgrid="false"
     fit-margin-top="0"
     fit-margin-left="0"
     fit-margin-right="0"
     fit-margin-bottom="0"
     inkscape:window-width="1920"
     inkscape:window-height="1023"
     inkscape:window-x="0"
     inkscape:window-y="0"
     inkscape:window-maximized="1" />
  <metadata
     id="metadata7">
    <rdf:RDF>
      <cc:Work
         rdf:about="">
        <dc:format>image/svg+xml</dc:format>
        <dc:type
           rdf:resource="http://purl.org/dc/dcmitype/StillImage" />
        <dc:title></dc:title>
      </cc:Work>
    </rdf:RDF>
  </metadata>
  <g
     inkscape:label="Layer 1"
     inkscape:groupmode="layer"
     id="layer1"
     transform="translate(-346.68975,-532.53928)">
    <g
       id="g4268"
       style="opacity:0.6">
      <g
         id="g4251">
        <path
           inkscape:connector-curvature="0"
           id="path4207"
           d="m 349.43603,532.76375 0,78.87139"
           style="fill:#e6e6e6;fill-rule:evenodd;stroke:#b0b0b0;stroke-width:0.44264156;stroke-linecap:round;stroke-linejoin:miter;stroke-miterlimit:4;stroke-dasharray:0.88528307, 1.77056612;stroke-dashoffset:0;stroke-opacity:1" />
        <path
           style="fill:#e6e6e6;fill-rule:evenodd;stroke:#b0b0b0;stroke-width:0.44264156;stroke-linecap:round;stroke-linejoin:miter;stroke-miterlimit:4;stroke-dasharray:0.88528307, 1.77056612;stroke-dashoffset:0;stroke-opacity:1"
           d="m 357.43603,532.76375 0,78.87139"
           id="path4221"
           inkscape:connector-curvature="0" />
        <path
           inkscape:connector-curvature="0"
           id="path4223"
           d="m 365.43603,532.76375 0,78.87139"
           style="fill:#e6e6e6;fill-rule:evenodd;stroke:#b0b0b0;stroke-width:0.44264156;stroke-linecap:round;stroke-linejoin:miter;stroke-miterlimit:4;stroke-dasharray:0.88528307, 1.77056612;stroke-dashoffset:0;stroke-opacity:1" />
        <path
           style="fill:#e6e6e6;fill-rule:evenodd;stroke:#b0b0b0;stroke-width:0.44264156;stroke-linecap:round;stroke-linejoin:miter;stroke-miterlimit:4;stroke-dasharray:0.88528307, 1.77056612;stroke-dashoffset:0;stroke-opacity:1"
           d="m 373.43603,532.76375 0,78.87139"
           id="path4225"
           inkscape:connector-curvature="0" />
        <path
           inkscape:connector-curvature="0"
           id="path4227"
           d="m 381.43603,532.76375 0,78.87139"
           style="fill:#e6e6e6;fill-rule:evenodd;stroke:#b0b0b0;stroke-width:0.44264156;stroke-linecap:round;stroke-linejoin:miter;stroke-miterlimit:4;stroke-dasharray:0.88528307, 1.77056612;stroke-dashoffset:0;stroke-opacity:1" />
        <path
           style="fill:#e6e6e6;fill-rule:evenodd;stroke:#b0b0b0;stroke-width:0.44264156;stroke-linecap:round;stroke-linejoin:miter;stroke-miterlimit:4;stroke-dasharray:0.88528307, 1.77056612;stroke-dashoffset:0;stroke-opacity:1"
           d="m 389.43603,532.76375 0,78.87139"
           id="path4229"
           inkscape:connector-curvature="0" />
        <path
           inkscape:connector-curvature="0"
           id="path4231"
           d="m 397.43603,532.76375 0,78.87139"
           style="fill:#e6e6e6;fill-rule:evenodd;stroke:#b0b0b0;stroke-width:0.44264156;stroke-linecap:round;stroke-linejoin:miter;stroke-miterlimit:4;stroke-dasharray:0.88528307, 1.77056612;stroke-dashoffset:0;stroke-opacity:1" />
        <path
           style="fill:#e6e6e6;fill-rule:evenodd;stroke:#b0b0b0;stroke-width:0.44264156;stroke-linecap:round;stroke-linejoin:miter;stroke-miterlimit:4;stroke-dasharray:0.88528307, 1.77056612;stroke-dashoffset:0;stroke-opacity:1"
           d="m 405.43603,532.76375 0,78.87139"
           id="path4233"
           inkscape:connector-curvature="0" />
        <path
           inkscape:connector-curvature="0"
           id="path4235"
           d="m 413.43603,532.76375 0,78.87139"
           style="fill:#e6e6e6;fill-rule:evenodd;stroke:#b0b0b0;stroke-width:0.44264156;stroke-linecap:round;stroke-linejoin:miter;stroke-miterlimit:4;stroke-dasharray:0.88528307, 1.77056612;stroke-dashoffset:0;stroke-opacity:1" />
        <path
           style="fill:#e6e6e6;fill-rule:evenodd;stroke:#b0b0b0;stroke-width:0.44264156;stroke-linecap:round;stroke-linejoin:miter;stroke-miterlimit:4;stroke-dasharray:0.88528307, 1.77056612;stroke-dashoffset:0;stroke-opacity:1"
           d="m 421.43603,532.76375 0,78.87139"
           id="path4237"
           inkscape:connector-curvature="0" />
        <path
           inkscape:connector-curvature="0"
           id="path4239"
           d="m 429.43603,532.76375 0,78.87139"
           style="fill:#e6e6e6;fill-rule:evenodd;stroke:#b0b0b0;stroke-width:0.44264156;stroke-linecap:round;stroke-linejoin:miter;stroke-miterlimit:4;stroke-dasharray:0.88528307, 1.77056612;stroke-dashoffset:0;stroke-opacity:1" />
        <path
           style="fill:#e6e6e6;fill-rule:evenodd;stroke:#b0b0b0;stroke-width:0.44264156;stroke-linecap:round;stroke-linejoin:miter;stroke-miterlimit:4;stroke-dasharray:0.88528307, 1.77056612;stroke-dashoffset:0;stroke-opacity:1"
           d="m 437.43603,532.76375 0,78.87139"
           id="path4241"
           inkscape:connector-curvature="0" />
        <path
           inkscape:connector-curvature="0"
           id="path4243"
           d="m 445.43603,532.76375 0,78.87139"
           style="fill:#e6e6e6;fill-rule:evenodd;stroke:#b0b0b0;stroke-width:0.44264156;stroke-linecap:round;stroke-linejoin:miter;stroke-miterlimit:4;stroke-dasharray:0.88528307, 1.77056612;stroke-dashoffset:0;stroke-opacity:1" />
        <path
           style="fill:#e6e6e6;fill-rule:evenodd;stroke:#b0b0b0;stroke-width:0.44264156;stroke-linecap:round;stroke-linejoin:miter;stroke-miterlimit:4;stroke-dasharray:0.88528307, 1.77056612;stroke-dashoffset:0;stroke-opacity:1"
           d="m 453.43603,532.76375 0,78.87139"
           id="path4245"
           inkscape:connector-curvature="0" />
        <path
           inkscape:connector-curvature="0"
           id="path4247"
           d="m 461.43603,532.76375 0,78.87139"
           style="fill:#e6e6e6;fill-rule:evenodd;stroke:#b0b0b0;stroke-width:0.44264156;stroke-linecap:round;stroke-linejoin:miter;stroke-miterlimit:4;stroke-dasharray:0.88528307, 1.77056612;stroke-dashoffset:0;stroke-opacity:1" />
      </g>
      <g
         id="g4209">
        <path
           style="fill:#e6e6e6;fill-rule:evenodd;stroke:#b0b0b0;stroke-width:0.54849327;stroke-linecap:round;stroke-linejoin:miter;stroke-miterlimit:4;stroke-dasharray:1.09698651, 2.19397301;stroke-dashoffset:0;stroke-opacity:1"
           d="m 346.9679,599.30857 121.1038,0"
           id="path4187"
           inkscape:connector-curvature="0" />
        <path
           inkscape:connector-curvature="0"
           id="path4189"
           d="m 346.9679,591.30857 121.1038,0"
           style="fill:#e6e6e6;fill-rule:evenodd;stroke:#b0b0b0;stroke-width:0.54849327;stroke-linecap:round;stroke-linejoin:miter;stroke-miterlimit:4;stroke-dasharray:1.09698651, 2.19397301;stroke-dashoffset:0;stroke-opacity:1" />
        <path
           style="fill:#e6e6e6;fill-rule:evenodd;stroke:#b0b0b0;stroke-width:0.54849327;stroke-linecap:round;stroke-linejoin:miter;stroke-miterlimit:4;stroke-dasharray:1.09698651, 2.19397301;stroke-dashoffset:0;stroke-opacity:1"
           d="m 346.9679,583.30857 121.1038,0"
           id="path4191"
           inkscape:connector-curvature="0" />
        <path
           inkscape:connector-curvature="0"
           id="path4193"
           d="m 346.9679,575.30857 121.1038,0"
           style="fill:#e6e6e6;fill-rule:evenodd;stroke:#b0b0b0;stroke-width:0.54849327;stroke-linecap:round;stroke-linejoin:miter;stroke-miterlimit:4;stroke-dasharray:1.09698651, 2.19397301;stroke-dashoffset:0;stroke-opacity:1" />
        <path
           style="fill:#e6e6e6;fill-rule:evenodd;stroke:#b0b0b0;stroke-width:0.54849327;stroke-linecap:round;stroke-linejoin:miter;stroke-miterlimit:4;stroke-dasharray:1.09698651, 2.19397301;stroke-dashoffset:0;stroke-opacity:1"
           d="m 346.9679,567.30857 121.1038,0"
           id="path4195"
           inkscape:connector-curvature="0" />
        <path
           inkscape:connector-curvature="0"
           id="path4197"
           d="m 346.9679,559.30857 121.1038,0"
           style="fill:#e6e6e6;fill-rule:evenodd;stroke:#b0b0b0;stroke-width:0.54849327;stroke-linecap:round;stroke-linejoin:miter;stroke-miterlimit:4;stroke-dasharray:1.09698651, 2.19397301;stroke-dashoffset:0;stroke-opacity:1" />
        <path
           style="fill:#e6e6e6;fill-rule:evenodd;stroke:#b0b0b0;stroke-width:0.54849327;stroke-linecap:round;stroke-linejoin:miter;stroke-miterlimit:4;stroke-dasharray:1.09698651, 2.19397301;stroke-dashoffset:0;stroke-opacity:1"
           d="m 346.9679,551.30857 121.1038,0"
           id="path4199"
           inkscape:connector-curvature="0" />
        <path
           inkscape:connector-curvature="0"
           id="path4201"
           d="m 346.9679,543.30857 121.1038,0"
           style="fill:#e6e6e6;fill-rule:evenodd;stroke:#b0b0b0;stroke-width:0.54849327;stroke-linecap:round;stroke-linejoin:miter;stroke-miterlimit:4;stroke-dasharray:1.09698651, 2.19397301;stroke-dashoffset:0;stroke-opacity:1" />
        <path
           style="fill:#e6e6e6;fill-rule:evenodd;stroke:#b0b0b0;stroke-width:0.54849327;stroke-linecap:round;stroke-linejoin:miter;stroke-miterlimit:4;stroke-dasharray:1.09698651, 2.19397301;stroke-dashoffset:0;stroke-opacity:1"
           d="m 346.9679,535.30857 121.1038,0"
           id="path4203"
           inkscape:connector-curvature="0" />
        <path
           inkscape:connector-curvature="0"
           id="path4205"
           d="m 346.9679,607.30857 121.1038,0"
           style="fill:#e6e6e6;fill-rule:evenodd;stroke:#b0b0b0;stroke-width:0.54849327;stroke-linecap:round;stroke-linejoin:miter;stroke-miterlimit:4;stroke-dasharray:1.09698651, 2.19397301;stroke-dashoffset:0;stroke-opacity:1" />
      </g>
    </g>
    <path
       style="fill:#df8549;fill-opacity:1"
       d="m 443.42664,541.00049 c -5.16966,-0.188 -10.01706,2.37746 -15.00835,3.59578 -4.04066,1.45507 -8.1193,2.77824 -12.18649,4.13774 -6.77869,2.88537 -13.21611,6.73844 -18.34689,12.09094 -4.30045,4.49809 -8.66782,8.93251 -12.11641,14.20217 -1.52573,2.33141 -4.07932,7.26335 -6.4061,6.17667 -2.40747,-1.12436 -3.35821,-8.25006 -6.79087,-5.21657 -1.02976,3.46102 1.09222,7.11524 3.50324,9.50169 2.60772,2.20913 6.72549,2.10924 9.19173,-0.7838 2.78774,-3.27017 5.29001,-6.57458 7.66528,-10.05724 5.26476,-6.62113 11.36351,-12.71665 18.457,-17.3682 3.29242,-1.65168 6.61548,-3.27014 10.02132,-4.69581 5.49588,-1.78787 10.93338,-3.77995 16.48976,-5.3775 3.44907,-0.99166 7.58583,-0.65307 10.4457,-2.60825 1.39257,-3.95735 -2.56238,-3.51192 -4.91892,-3.59762 z"
       id="path4157"
       inkscape:connector-curvature="0"
       sodipodi:nodetypes="scccssccscccacs" />
    <path
       inkscape:connector-curvature="0"
       id="path4155"
       d="m 366.35168,609.97743 c -1.60023,-0.84635 -2.06445,-2.50518 -2.13074,-7.61383 -0.0558,-4.29972 -0.24138,-4.96191 -1.4102,-5.03129 -0.27696,-0.0164 -2.43813,-0.0827 -4.8026,-0.14733 -4.82135,-0.1317 -6.03294,-0.48706 -6.98527,-2.04877 -0.90539,-1.48473 -0.65048,-3.44704 0.5054,-3.8906 0.26828,-0.10294 1.11578,0.0125 1.88334,0.25662 1.50758,0.47941 9.14506,1.05762 10.04446,0.76042 0.4799,-0.15858 0.56326,-0.61304 0.6632,-3.61591 0.3221,-9.67764 0.39682,-22.11561 0.15072,-25.08862 -0.3182,-3.84416 -1.15204,-9.56112 -1.52357,-10.44592 -0.13857,-0.33 -0.30415,-1.46383 -0.36796,-2.51962 -0.13753,-2.27527 -0.79234,-3.03038 -2.62786,-3.03038 -0.9048,0 -1.30038,-0.19049 -1.91676,-0.92302 -1.00704,-1.19679 -0.96598,-2.27697 0.13552,-3.56565 0.59103,-0.66285 0.87408,-1.52335 1.16744,-2.24874 0.1538,-0.0951 0.45022,-0.93512 0.65873,-1.86681 0.2755,-1.23107 0.68076,-2.0111 1.48298,-2.85441 1.0432,-1.09664 1.17601,-1.14958 2.41627,-0.96318 3.03863,0.94637 3.78543,3.69186 5.06624,5.97181 0.0113,0.165 0.42005,0.7674 0.90834,1.33867 0.4883,0.57126 0.88781,1.19159 0.88781,1.3785 0,0.6735 -1.06036,1.28178 -2.17553,1.24799 -1.60523,-0.0486 -1.79724,0.27544 -1.30301,2.19921 0.23112,0.8996 0.56615,2.58063 0.74452,3.73563 0.17837,1.155 0.46149,2.57161 0.62916,3.14802 0.37062,1.75267 0.47354,1.5058 0.82071,5.25198 0.34717,3.74618 0.49712,3.8689 0.51431,17.25 l 0.0198,15.45 2.25,-0.0127 c 1.2375,-0.007 4.545,-0.19388 7.35,-0.41528 2.805,-0.2214 5.7075,-0.43675 6.45,-0.47857 0.7425,-0.0418 2.43,-0.15284 3.75,-0.24671 1.32,-0.0939 6.2475,-0.25278 10.95,-0.35313 4.7025,-0.10035 8.7965,-0.25356 9.09779,-0.34046 0.30129,-0.0869 4.35129,-0.27091 9,-0.40888 4.64871,-0.13798 10.07221,-0.39291 12.05221,-0.56652 1.98,-0.1736 5.62072,-0.46791 8.0905,-0.65401 5.24039,-0.39487 5.78139,-0.54615 5.91307,-1.65346 0.0547,-0.45967 0.45711,-1.07902 0.92914,-1.42991 0.82449,-0.61289 0.85563,-0.61369 3.15,-0.0808 1.27451,0.29603 3.49669,0.62874 4.93819,0.73933 2.49401,0.19136 2.673,0.25324 3.69712,1.27822 0.76073,0.76137 1.12368,1.43087 1.23808,2.28382 0.14781,1.10204 0.0744,1.27282 -0.84712,1.96924 -0.55494,0.41941 -1.58341,1.05943 -2.28548,1.42226 -1.14962,0.78634 -2.40577,1.20588 -3.39621,1.98371 -0.81447,0.88039 -2.97432,1.91383 -3.99986,1.91383 -0.95458,0 -1.97742,-1.20347 -1.97742,-2.32663 0,-0.51588 -0.10125,-0.99864 -0.225,-1.07281 -0.24176,-0.14488 -10.10895,0.51028 -15.525,1.03084 -1.815,0.17444 -8.4975,0.35989 -14.85,0.41209 -13.86257,0.11392 -24.80198,0.43447 -25.63899,0.75129 -0.33606,0.1272 -2.56851,0.32424 -4.96101,0.43787 -2.3925,0.11362 -4.89,0.32503 -5.55,0.46979 -0.66,0.14476 -2.94292,0.33117 -5.07316,0.41425 -2.64215,0.10304 -3.99955,0.27745 -4.27086,0.54876 -0.50558,0.50558 -0.60287,7.25438 -0.13399,9.29516 0.6753,2.93916 -0.99636,4.31977 -3.57748,2.95462 z"
       style="fill:#333333;fill-opacity:1"
       sodipodi:nodetypes="csccsccsssssssccsscccscssczsccsccssssscssssscccsscsssssssscc" />
  </g>
</svg>
